# xmcd
#
# Track frame offsets: 
#        150
#        12215
#        31825
#        55684
#        71718
#        91106
#        108507
#        129834
#        150399
#        161962
#        175378
#        194592
#
# Disc length: 2825 seconds
#
# Revision: 0
# Processed by: cddbd v1.5.2PL0 Copyright (c) Steve Scherf et al.
# Submitted via: ExactAudioCopyFreeDBPlugin 1.0
#
DISCID=950b070c
DTITLE=Cody Jinks - Adobe Sessions
DYEAR=2014
DGENRE=Country
TTITLE0=What Else Is New
TTITLE1=Mamma Song
TTITLE2=Cast No Stones
TTITLE3=We're Gonna Dance
TTITLE4=Birds
TTITLE5=Loud and Heavy
TTITLE6=David
TTITLE7=Me or You
TTITLE8=Folks
TTITLE9=Ready for the Times to get Better
TTITLE10=Dirt
TTITLE11=Rock and Roll
EXTD=
EXTT0=
EXTT1=
EXTT2=
EXTT3=
EXTT4=
EXTT5=
EXTT6=
EXTT7=
EXTT8=
EXTT9=
EXTT10=
EXTT11=
PLAYORDER=
